<svg xmlns="http://www.w3.org/2000/svg" xmlns:xlink="http://www.w3.org/1999/xlink" width="136" height="30" viewBox="0 0 136 30">
	<defs>
		<linearGradient id="linear-gradient" x1="0.694" y1="0.776" x2="0.397" y2="0.146" gradientUnits="objectBoundingBox">
			<stop offset="0" stop-color="#0f58fb"/>
			<stop offset="1" stop-color="#0134a7"/>
		</linearGradient>
	</defs>
	<g id="그룹_24057" transform="translate(-324)">
		<g id="_1-10" transform="translate(324 0.695)">
			<g id="그룹_24069">
				<path id="패스_83280" d="M278.056,62.6a4.406,4.406,0,0,1-4.073-2.736h11.811a9.221,9.221,0,0,0,.172-1.664,7.936,7.936,0,1,0-1.4,4.483l-2.948-1.91A4.4,4.4,0,0,1,278.056,62.6Zm0-8.8a4.406,4.406,0,0,1,4.181,3.033h-8.364A4.409,4.409,0,0,1,278.056,53.793Z" transform="translate(-227.635 -42.732)" fill="#191919"/>
				<path id="패스_83281" d="M216.246,51.545V50.386H212.61V65.857h3.636V59c0-2.5.687-3.295,1.335-3.935a5.133,5.133,0,0,1,3.607-1.45,5.417,5.417,0,0,1,1.031.1V50.034a8.735,8.735,0,0,0-1.031-.064A8.523,8.523,0,0,0,216.246,51.545Z" transform="translate(-180.19 -42.512)" fill="#191919"/>
				<path id="패스_83282" d="M384.624,51.493a7.882,7.882,0,0,0-4.109-1.293h-.026a7.767,7.767,0,0,0-5.569,2.358A8.038,8.038,0,0,0,372.59,58.2a7.9,7.9,0,0,0,7.871,7.927h.129a7.577,7.577,0,0,0,4.035-1.156v1.077h3.513V50.571h-3.513Zm-1.051,9.879a4.2,4.2,0,0,1-3.109,1.269,4.432,4.432,0,0,1-3.113-7.558,4.2,4.2,0,0,1,3.008-1.273h.1a4.433,4.433,0,0,1,3.111,7.558Z" transform="translate(-312.275 -42.701)" fill="#191919"/>
				<path id="패스_83283" d="M546.19,29.189h0a7.989,7.989,0,0,0-9.588-1.177V22H533.08V42.7h3.363V41.57a7.879,7.879,0,0,0,4.112,1.161,7.939,7.939,0,0,0,5.68-13.494Zm-2.4,8.685c-.022.024-.046.048-.07.07h0a4.392,4.392,0,0,1-7.527-3.112,4.3,4.3,0,0,1,.4-1.838,4.517,4.517,0,0,1,.907-1.273,4.38,4.38,0,0,1,3.092-1.324h.051a4.4,4.4,0,0,1,3.145,7.479Z" transform="translate(-446.97 -19.557)" fill="#191919"/>
				<rect id="사각형_1827" width="3.513" height="20.69" transform="translate(79.213 2.443)" fill="#191919"/>
				<path id="패스_83284" d="M732.847,52.31,728.4,62.287,723.9,52.31l-3.846-.01,6.424,14.3-3.034,6.309h3.949l9.259-20.6Z" transform="translate(-601.349 -44.295)" fill="#191919"/>
				<path id="패스_83285" d="M642.72,52.36v8.76c0,2.372-1.079,3.576-3.205,3.576a2.915,2.915,0,0,1-2.135-.721,4.013,4.013,0,0,1-.905-2.961V52.36H633v9.528c0,4.284,1.855,5.926,5.579,5.947h.082c2.338,0,3.576-.546,4.277-1.546v1.546h3.288V52.36Z" transform="translate(-529.251 -44.488)" fill="#191919"/>
			</g>
			<g id="그룹_3403">
				<path id="패스_83286" d="M42.47,13.647l-1.529-.968L37.1,10.232l-.063-.041L33.814,8.145a2.483,2.483,0,0,0-2.632.023L26.6,11.089l-4.772,3.029h0a2.846,2.846,0,0,0-1.164,2.39V30.094a1.464,1.464,0,0,0,.65,1.239l.648.412h0L26.131,34.4l.883.561h0L28.96,36.2a1.3,1.3,0,0,0,1.947-1.237V22.36a1.578,1.578,0,0,1,.011-.194,1.453,1.453,0,0,1,.034-.182,1.494,1.494,0,0,1,.222-.5,1.532,1.532,0,0,1,.111-.139,1.341,1.341,0,0,1,.271-.228l3.593-2.286,5.8-3.677h0l1.947-1.241h0Z" transform="translate(-20.659 -7.779)" fill="#0f58fb"/>
				<path id="패스_83287" d="M105.063,40.012l-.878-.614h0l-1.946,1.221h0l-5.75,3.723V47.9a1.441,1.441,0,0,0,.65,1.223l6.628,4.155a1.3,1.3,0,0,0,1.946-1.223V41.235A1.439,1.439,0,0,0,105.063,40.012Z" transform="translate(-81.997 -33.277)" fill="url(#linear-gradient)"/>
			</g>
		</g>
		<rect id="사각형_1871" width="136" height="30" transform="translate(324)" fill="none"/>
	</g>
</svg>
